<svg version="1.1" xmlns="http://www.w3.org/2000/svg" xmlns:xlink="http://www.w3.org/1999/xlink" width="48" height="48"><defs><linearGradient x1="16.088" y1="9.82523" x2="32.26557" y2="38.52831" gradientUnits="userSpaceOnUse" id="color-1"><stop offset="1" stop-color="#000000" stop-opacity="0"></stop><stop offset="1" stop-color="#000000" stop-opacity="0"></stop></linearGradient><linearGradient x1="14.58905" y1="13.80007" x2="29.81459" y2="13.80007" gradientUnits="userSpaceOnUse" id="color-2"><stop offset="0" stop-color="#12b212"></stop><stop offset="1" stop-color="#00ff00"></stop></linearGradient><filter id="dropshadow-base"><feColorMatrix type="matrix" values="0 0 0 0 0  0 0 0 0 0  0 0 0 0 0  0 0 0 .8 0"></feColorMatrix> <feOffset dx="0" dy="1"></feOffset> <feGaussianBlur stdDeviation="1"></feGaussianBlur> <feComposite in="SourceGraphic"></feComposite></filter><filter id="dropshadow-banner" x="-10%" y="-10%" width="120%" height="130%"><feColorMatrix type="matrix" values="0 0 0 0 0  0 0 0 0 0  0 0 0 0 0  0 0 0 .4 0"></feColorMatrix> <feOffset dx="0" dy="1"></feOffset> <feGaussianBlur stdDeviation="0.5"></feGaussianBlur> <feComposite in="SourceGraphic"></feComposite></filter></defs><g fill="none" fill-rule="nonzero" stroke="none" stroke-width="none" stroke-linecap="butt" stroke-linejoin="miter" stroke-miterlimit="10" stroke-dasharray="" stroke-dashoffset="0" font-family="none" font-weight="none" font-size="none" text-anchor="none" style="mix-blend-mode: normal"><path d="M2,24c0,-12.15026 9.84974,-22 22,-22c12.15026,0 22,9.84974 22,22c0,12.15026 -9.84974,22 -22,22c-12.15026,0 -22,-9.84974 -22,-22z" id="base 1 5" fill="#ffffff" stroke-width="1"></path><path d="M16.68651,9.82523c2.85674,0 5.04909,0.84538 6.56429,2.36058l0.35355,0.35355c1.25203,1.25203 2.0417,2.96141 2.36182,5.02908c-0.08239,0.31242 -0.15417,0.64539 -0.21381,1.00024c-0.14187,-2.57652 -0.92156,-4.69618 -2.32772,-6.20292c-1.50688,-1.40603 -3.63886,-2.18698 -6.38458,-2.18698c0.14426,2.90081 1.11747,5.04814 2.50807,6.52743c1.38045,1.2975 3.10509,2.00155 4.8238,2.18487c0.11998,-1.23484 -1.77472,-3.4294 -3.33395,-5.00867c-0.90674,-0.8955 -1.62305,-1.51947 -1.62305,-1.51947l-0.35355,-0.35355c-0.00279,-0.00678 -0.00058,-0.01459 0.00535,-0.01889c0.00593,-0.00431 0.01403,-0.00401 0.01962,0.00072c0,0 2.03872,1.75916 3.88359,3.60404l0.35355,0.35355c1.0706,1.0706 2.07591,2.17005 2.57965,2.97134c0.06742,-0.00486 0.13466,-0.01052 0.2017,-0.01698c-0.0259,-0.45979 -0.07215,-0.90499 -0.13868,-1.33472c1.41057,-5.34873 5.93226,-4.67586 5.93226,-4.67586l0.35355,0.35355c0.24066,3.64405 -2.75177,5.85318 -6.14607,6.03708l-0.35355,-0.35355c-0.3659,-0.771 -1.43246,-1.9719 -2.60811,-3.15926c-1.79516,-1.77825 -3.70434,-3.42564 -3.70434,-3.42564c-0.00232,-0.00197 -0.00508,-0.00317 -0.00794,-0.00359c0.33018,0.30038 0.84996,0.78407 1.43086,1.36497l0.35355,0.35355c1.58835,1.58835 3.63362,3.90344 3.5091,5.18493c-1.79399,-0.19135 -3.59445,-0.95005 -5.0032,-2.3588l-0.35355,-0.35355c-1.48308,-1.48308 -2.53202,-3.68661 -2.68223,-6.70705zM31.9115,13.22109c-1.15247,-0.03435 -4.8858,0.28148 -5.80229,5.68166c3.14186,-0.30438 5.84584,-2.35879 5.80229,-5.68166zM22.83191,37.20032c0.18153,0.49004 0.45679,0.94525 0.82039,1.32799l-0.35355,-0.35355c-0.3636,-0.38274 -0.63886,-0.83796 -0.82039,-1.32799zM16.44975,29.64777c0,0 -0.00447,-0.00001 -0.00681,-0.00001c0,0 0,0 0,0.00001c-0.00098,0 -0.00139,0 -0.00139,-0.00001l-0.35355,-0.35355c0,0 0.00056,0 0.00139,0c0.00161,-0.02807 0.00388,-0.07453 0.00853,-0.13642l0.35355,0.35355c-0.00125,0.0454 -0.00183,0.09087 -0.00171,0.13642z" fill="url(#color-1)" stroke-width="1"></path><path d="M24.37193,18.89109c-3.68265,-0.39279 -7.39254,-3.17634 -7.68542,-9.06585c5.71469,0 8.77069,3.38295 9.06585,8.74345c1.08073,-6.42987 6.14607,-5.67609 6.14607,-5.67609c0.24067,3.64405 -2.75177,5.85318 -6.14607,6.03709c-0.95358,-2.00934 -6.666,-6.93845 -6.666,-6.93845c-0.00559,-0.00474 -0.01369,-0.00504 -0.01962,-0.00073c-0.00593,0.00431 -0.00814,0.01211 -0.00535,0.01889c0,0 5.51262,4.80197 5.31055,6.88169zM23.29875,38.17476c-0.33172,-0.33471 -0.62208,-0.76766 -0.82039,-1.328c0.18153,0.49004 0.45678,0.94524 0.82039,1.328zM16.08938,29.29422c0.00161,-0.02806 0.00388,-0.07453 0.00852,-0.13643c-0.00125,0.0454 -0.00182,0.09088 -0.00171,0.13643c0,0 -0.01224,-0.00002 -0.00681,0z" id="Leaf_Path 1 1" fill="none" stroke-width="0"></path><g stroke-width="1"><g id="Layer_2 1"><g id="RedBerry 1"><path d="M22.27448,18.31597M22.27448,18.31597c-3.68265,-0.39279 -7.39254,-3.17634 -7.68542,-9.06585c5.71469,0 8.77069,3.38295 9.06585,8.74345c1.08073,-6.42987 6.14607,-5.67609 6.14607,-5.67609c0.24067,3.64405 -2.75177,5.85318 -6.14607,6.03709c-0.95358,-2.00934 -6.666,-6.93845 -6.666,-6.93845c-0.00559,-0.00474 -0.01369,-0.00504 -0.01962,-0.00073c-0.00593,0.00431 -0.00814,0.01211 -0.00535,0.01889c0,0 5.51262,4.80197 5.31055,6.88169" id="Leaf_Path 1" fill="url(#color-2)"></path><path d="M24.00001,38.74988c-0.35646,-0.02043 -3.68265,-0.14758 -3.88471,-3.88471c-0.16347,-2.27044 1.63017,-3.94375 1.63017,-6.14834c-0.40641,-5.49672 -7.7717,-4.81559 -7.7717,0v0c-0.00305,1.20353 0.47325,2.35875 1.32366,3.2104l5.48764,5.48991c0.85165,0.85041 2.00686,1.32671 3.2104,1.32366" id="LeftBerry 1" fill="#980200"></path><path d="M34.02625,28.7191c-0.02043,0.35646 -0.14758,3.68265 -3.88471,3.88471c-2.27044,0.16347 -3.94602,-1.63017 -6.14834,-1.63017c-5.49672,0.40641 -4.81559,7.76943 0,7.76943v0c1.20353,0.00305 2.35875,-0.47325 3.2104,-1.32366l5.49218,-5.48764c0.85041,-0.85165 1.32671,-2.00686 1.32366,-3.2104" id="BottomBerry 1" fill="#ff0000"></path><path d="M24.00001,18.69286c0.35646,0.02043 3.68265,0.14758 3.88471,3.88471c0.16347,2.27044 -1.63017,3.94375 -1.63017,6.14834c0.40641,5.49672 7.76943,4.81559 7.76943,0v0c0.00305,-1.20353 -0.47325,-2.35875 -1.32366,-3.2104l-5.48991,-5.49218c-0.85165,-0.85041 -2.00686,-1.32671 -3.2104,-1.32366" id="RightBerry 1" fill="#980200"></path><path d="M13.99193,28.7191c0.02043,-0.35646 0.14758,-3.68265 3.88471,-3.88471c2.27044,-0.16347 3.94602,1.63017 6.14834,1.63017c5.49672,-0.41322 4.81559,-7.76943 0,-7.76943v0c-1.20353,-0.00305 -2.35875,0.47325 -3.2104,1.32366l-5.49218,5.48991c-0.85041,0.85165 -1.32671,2.00686 -1.32366,3.2104" id="TopBerry 1" fill="#ff0000"></path></g></g></g><path d="M2,24c0,-12.15026 9.84974,-22 22,-22c12.15026,0 22,9.84974 22,22c0,12.15026 -9.84974,22 -22,22c-12.15026,0 -22,-9.84974 -22,-22z" id="base 1 1 1" fill="none" stroke-width="1"></path><g fill="#000000" stroke-width="1" font-family="Roboto, sans-serif" font-weight="normal" font-size="14" text-anchor="start"><g id="Layer_2 1 1"><g id="RedBerry 1 1"></g></g></g><rect x="2" y="2" width="44" height="22" fill="none" stroke-width="1"></rect><path d="M2,24v-22h44v22z" fill="none" stroke-width="1"></path><path d="M2,24v-22h44v22z" fill="none" stroke-width="1"></path><path d="M2,24v-22h44v22z" fill="none" stroke-width="1"></path><path d="M2,24v-22h44v22z" fill="none" stroke-width="1"></path></g></svg>